<mxfile host="app.diagrams.net" modified="2023-10-19T08:02:22.545Z" agent="Mozilla/5.0 (X11; Linux x86_64; rv:109.0) Gecko/20100101 Firefox/114.0" version="21.6.6" etag="4wk8F6c2tyKaE2Yaz0O0" type="github">
  <diagram name="第 1 页" id="9PNYTfUIwPRNjHssTtwt">
    <mxGraphModel>
      <root>
        <mxCell id="0" />
        <mxCell id="1" parent="0" />
      </root>
    </mxGraphModel>
  </diagram>
</mxfile>
